# xmcd
#
# Track frame offsets:
#	150
#	22196
#	37241
#	53646
#	74391
#	86865
#	110718
#	136168
#	158441
#	179170
#	202479
#	242574
#	268174
#	297233
#	312336
#
# Disc length: 4386 seconds
#
# Revision: 0
# Processed by: cddbd v1.5.1PL2 Copyright (c) Steve Scherf et al.
# Submitted via: audiograbber 1.83.01
#
DISCID=ee11200f
DTITLE=The Harlem Gospel Singers - Rock my Soul
DYEAR=2000
DGENRE=Gospel
TTITLE0=This Train (live)
TTITLE1=Its Me Oh Lord (live)
TTITLE2=Traditional Medley (live)
TTITLE3=Sweepin' Trough The City (live)
TTITLE4=When All God's Children Get Together (live)
TTITLE5=Free (live)
TTITLE6=Ain't No Stoppin' Us Now (live)
TTITLE7=Walking In Memphis (live)
TTITLE8=The Time Is Now (live)
TTITLE9=Oh Happy Day (live)
TTITLE10=Happiness (live)
TTITLE11=Imagine (feat. Queen Esther Marrow)
TTITLE12=Medley (feat. Queen Esther Marrow)
TTITLE13=Didn't it rain (feat. Queen Esther Marrow)
TTITLE14=Higher and higher (feat. Queen Esther Marrow)
EXTD=
EXTT0=
EXTT1=
EXTT2=There must be a god somewhere\nOver my head I hear music in the air\nSwin
EXTT2=g low
EXTT3=
EXTT4=
EXTT5=
EXTT6=
EXTT7=
EXTT8=
EXTT9=
EXTT10=
EXTT11=
EXTT12=
EXTT13=
EXTT14=
PLAYORDER=
